<mxfile host="65bd71144e" modified="2023-06-10T20:02:34.024Z" agent="Mozilla/5.0 (Macintosh; Intel Mac OS X 13_4_0) AppleWebKit/537.36 (KHTML, like Gecko) Code/1.79.0 Chrome/108.0.5359.215 Electron/22.5.5 Safari/537.36" etag="fO8RmUQ3Skrt44a0p4Xh" version="21.3.8" type="embed">
    <diagram id="SgoCRJlDQVXVclui49dq" name="Page-1">
        <mxGraphModel dx="680" dy="417" grid="1" gridSize="10" guides="1" tooltips="1" connect="1" arrows="1" fold="1" page="1" pageScale="1" pageWidth="850" pageHeight="1100" background="#ffffff" math="0" shadow="0">
            <root>
                <mxCell id="0"/>
                <mxCell id="1" parent="0"/>
                <mxCell id="2" value="Java Development Tool" style="rounded=1;whiteSpace=wrap;html=1;strokeColor=#000000;fillColor=#CCCCCC;fontColor=#000000;strokeWidth=2;fontSize=17;" parent="1" vertex="1">
                    <mxGeometry x="60" y="60" width="190" height="110" as="geometry"/>
                </mxCell>
                <mxCell id="3" value="Python Development Tool" style="rounded=1;whiteSpace=wrap;html=1;strokeColor=#000000;fillColor=#CCCCCC;fontColor=#000000;strokeWidth=2;fontSize=17;" parent="1" vertex="1">
                    <mxGeometry x="60" y="190" width="190" height="110" as="geometry"/>
                </mxCell>
                <mxCell id="4" value="Visual Studio Code" style="rounded=1;whiteSpace=wrap;html=1;strokeColor=#000000;fillColor=#CCCCCC;fontColor=#000000;strokeWidth=2;fontSize=17;" parent="1" vertex="1">
                    <mxGeometry x="60" y="320" width="190" height="110" as="geometry"/>
                </mxCell>
                <mxCell id="5" value="Java Language Server" style="rounded=0;whiteSpace=wrap;html=1;strokeColor=#000000;fillColor=#CCCCCC;fontColor=#000000;strokeWidth=2;fontSize=17;" parent="1" vertex="1">
                    <mxGeometry x="440" y="145" width="150" height="80" as="geometry"/>
                </mxCell>
                <mxCell id="6" value="Python Language Server" style="rounded=0;whiteSpace=wrap;html=1;strokeColor=#000000;fillColor=#CCCCCC;fontColor=#000000;strokeWidth=2;fontSize=17;" parent="1" vertex="1">
                    <mxGeometry x="440" y="265" width="150" height="80" as="geometry"/>
                </mxCell>
                <mxCell id="12" value="" style="rounded=0;whiteSpace=wrap;html=1;strokeColor=none;fillColor=#FF0000;opacity=50;" parent="1" vertex="1">
                    <mxGeometry x="270" y="80" width="150" height="330" as="geometry"/>
                </mxCell>
                <mxCell id="7" style="edgeStyle=none;html=1;entryX=0;entryY=0.5;entryDx=0;entryDy=0;exitX=1;exitY=0.5;exitDx=0;exitDy=0;strokeColor=#000000;strokeWidth=2;" parent="1" source="2" target="5" edge="1">
                    <mxGeometry relative="1" as="geometry"/>
                </mxCell>
                <mxCell id="9" style="edgeStyle=none;html=1;entryX=0;entryY=0.5;entryDx=0;entryDy=0;exitX=1;exitY=0.5;exitDx=0;exitDy=0;strokeColor=#000000;strokeWidth=2;" parent="1" source="3" target="6" edge="1">
                    <mxGeometry relative="1" as="geometry"/>
                </mxCell>
                <mxCell id="10" style="edgeStyle=none;html=1;entryX=0;entryY=0.5;entryDx=0;entryDy=0;exitX=1;exitY=0.5;exitDx=0;exitDy=0;strokeColor=#000000;strokeWidth=2;" parent="1" source="4" target="6" edge="1">
                    <mxGeometry relative="1" as="geometry"/>
                </mxCell>
                <mxCell id="11" style="edgeStyle=none;html=1;entryX=0;entryY=0.5;entryDx=0;entryDy=0;exitX=1;exitY=0.5;exitDx=0;exitDy=0;strokeColor=#000000;strokeWidth=2;" parent="1" source="4" target="5" edge="1">
                    <mxGeometry relative="1" as="geometry"/>
                </mxCell>
                <mxCell id="33" value="&lt;font color=&quot;#000000&quot; style=&quot;font-size: 22px;&quot;&gt;No LSP&lt;/font&gt;" style="rounded=0;whiteSpace=wrap;html=1;fillColor=#FFFFFF;strokeColor=none;" parent="1" vertex="1">
                    <mxGeometry x="300" y="185" width="90" height="40" as="geometry"/>
                </mxCell>
            </root>
        </mxGraphModel>
    </diagram>
</mxfile>